<svg xmlns="http://www.w3.org/2000/svg" viewBox="0 0 354 216" width="354" height="216"><path d="M12.92 16h328.16c7.132 0 12.92 7.93 12.92 17.7V198.3c0 9.77-5.788 17.699-12.92 17.699H12.92C5.788 216 0 208.071 0 198.301V33.699C0 23.93 5.788 16 12.92 16z" fill="#EAF1F5"/><path d="M101.118 40.773a5.781 5.781 0 00-3.292 2.94 5.998 5.998 0 00-.301 4.464l3.646 11.07-10.798 3.737-3.646-11.07a5.808 5.808 0 00-2.867-3.365 5.56 5.56 0 00-4.355-.301 5.782 5.782 0 00-3.292 2.94 5.998 5.998 0 00-.301 4.464l1.823 5.543-43.19 14.95-1.823-5.544a5.808 5.808 0 00-2.867-3.366 5.565 5.565 0 00-4.355-.3 5.781 5.781 0 00-3.292 2.94 5.998 5.998 0 00-.3 4.463l3.645 11.07-10.797 3.737-3.646-11.07a5.808 5.808 0 00-2.868-3.365 5.56 5.56 0 00-4.354-.301 5.782 5.782 0 00-3.293 2.94 5.998 5.998 0 00-.3 4.463l32.781 99.667a5.81 5.81 0 002.868 3.365 5.558 5.558 0 004.354.301 5.78 5.78 0 003.293-2.94 5.997 5.997 0 00.3-4.463l-3.646-11.07 10.798-3.738 3.646 11.07a5.808 5.808 0 002.867 3.366c1.346.69 2.921.797 4.355.301a5.784 5.784 0 003.292-2.94 6 6 0 00.301-4.464l-1.823-5.544 43.19-14.949 1.823 5.544a5.806 5.806 0 002.867 3.365 5.56 5.56 0 004.355.301 5.692 5.692 0 003.274-2.94 5.994 5.994 0 00.301-4.463l-3.646-11.07 10.797-3.738 3.647 11.071a5.81 5.81 0 002.867 3.365 5.56 5.56 0 004.355.301 5.786 5.786 0 003.292-2.94 5.997 5.997 0 00.301-4.464L108.322 44.44a5.809 5.809 0 00-2.867-3.365 5.517 5.517 0 00-4.337-.302zM47.467 151.864l-10.797 3.737-3.647-11.07 10.798-3.737 3.646 11.07zm-7.293-22.158l-10.797 3.737-3.647-11.07 10.798-3.737 3.646 11.07zm-7.293-22.14l-10.797 3.737-3.646-11.07 10.797-3.737 3.647 11.07zm70.379 31.156l-43.19 14.949-9.116-27.684 43.19-14.949 9.116 27.684zM90.515 99.95l-43.19 14.949-9.098-27.684 43.19-14.95 9.098 27.685zm32.516 25.753l-10.797 3.738-3.646-11.071 10.797-3.737 3.646 11.07zm-7.275-22.14l-10.797 3.737-3.646-11.07 10.797-3.737 3.646 11.07zm-7.292-22.158l-10.798 3.737-3.646-11.07 10.797-3.737 3.647 11.07zm190.619 79.51a17.641 17.641 0 00-5.665-4.003 16.924 16.924 0 00-6.726-1.452 17.046 17.046 0 00-6.761 1.328 17.585 17.585 0 00-5.736 3.915 17.695 17.695 0 00-3.805 5.88 18.15 18.15 0 00-1.292 6.925c.017 2.374.495 4.73 1.416 6.908a18.058 18.058 0 003.912 5.81 17.444 17.444 0 005.664 4.003 16.958 16.958 0 006.726 1.452 17.116 17.116 0 006.762-1.328 17.586 17.586 0 005.735-3.915 18 18 0 003.806-5.88 18.52 18.52 0 001.292-6.926 18.13 18.13 0 00-1.416-6.907 17.528 17.528 0 00-3.912-5.81zm-1.452 3.702h-9.54l4.106-4.198a14.297 14.297 0 015.434 4.198zm-16.107-4.286a13.969 13.969 0 016.744-.975l-6.744 6.926v-5.951zm-3.487 2.09v9.777l-3.151-3.242-.938-.974a14.477 14.477 0 014.089-5.561zm-4.178 16.507a14.663 14.663 0 01-.938-6.925l6.744 6.925h-5.806zm2.036 3.578h9.54l-4.106 4.198a14.287 14.287 0 01-5.434-4.198zm16.107 4.287a13.758 13.758 0 01-6.744.956l6.744-6.925v5.969zm0-11.017l-3.062 3.152h-4.336l-3.063-3.152v-4.428l3.063-3.153h4.319l3.062 3.153v4.428h.017zm3.487 8.927v-9.778l4.107 4.198a14.818 14.818 0 01-4.107 5.58zm-1.628-16.508h5.806a14.894 14.894 0 01.938 6.925l-6.744-6.925z" fill="#D7DDE5"/><path d="M174.783 10.391l-41.834 86.037L250.381 153.6l41.834-86.036L174.783 10.39z" fill="#FBFBFB"/><path fill-rule="evenodd" clip-rule="evenodd" d="M175.956.053c-.778.018-2.017.372-2.725.762l-1.31.726-24.02 49.204-24.02 49.205.23 1.47c.124.815.62 2.001 1.08 2.621l.832 1.152 61.793 30.199 61.793 30.199 1.416-.053c.779-.018 2.018-.372 2.726-.762l1.31-.726 24.02-49.204 24.02-49.205-.23-1.47c-.124-.815-.62-2.001-1.08-2.621l-.832-1.151-61.793-30.2L177.39 0l-1.434.053zM277.559 91.59l-11.771 24.106-55.191-26.958-55.191-26.976 11.771-24.106 11.771-24.106 55.191 26.975 55.191 26.976-11.771 24.089zM197.268 42.26l-11.364 8.467-1.469 2.993-1.469 2.993 8.726 4.269 8.727 4.269-2.018 4.127-2.018 4.126 4.372 2.126 4.372 2.126 2.018-4.128 2.018-4.126 2.443 1.186 2.442 1.187 1.7-3.49 1.699-3.489-2.443-1.186-2.442-1.187 1.947-4.003 1.947-4.003-4.355-2.125-4.372-2.126-1.947 4.003-1.947 4.003-3.876-1.895-3.877-1.895 10.638-8.077c5.859-4.446 10.674-8.13 10.692-8.183.035-.071-1.948-1.098-4.373-2.285l-4.425-2.16-11.346 8.483zm26.374 21.698l-8.992 18.438 4.62 2.267 4.62 2.25 2.213-4.535 2.212-4.534 3.611-1.47c1.983-.815 3.7-1.453 3.806-1.453.106.018.779 4.34 1.504 9.6l1.31 9.565 5.505 2.692c3.027 1.488 5.523 2.64 5.558 2.586.036-.053-.832-6.536-1.929-14.382l-1.983-14.276 1.346-.514c1.752-.655 18.214-7.421 18.957-7.793.549-.266.283-.425-4.797-2.887l-5.363-2.621-10.78 4.498-10.78 4.5 3.788-7.918 3.788-7.935-4.62-2.25-4.62-2.249-8.974 18.42zm-58.749 16.808l-.495 1.028-5.133-2.515-5.134-2.515-1.699 3.489-1.699 3.49 4.637 2.266 4.638 2.267-.619 1.063-.62 1.063-4.585-2.16-4.584-2.162-2.106 4.145-2.107 4.144-1.133-.46-1.132-.46 4.85-9.937 4.85-9.937 6.283 3.082 6.284 3.082-.496 1.028zm2.319 8.396c-3.221 6.802-3.292 6.961-3.204 8.343.124 1.86 1.027 3.418 2.691 4.587 2.673 1.895 5.611 2.108 7.877.567 1.133-.78 1.221-.921 4.602-7.652l3.452-6.854 1.132.549 1.133.549-2.938 6.004c-1.611 3.312-3.399 6.642-3.965 7.404-1.77 2.409-4.071 3.578-6.939 3.525-2.283-.054-6.266-2.002-7.7-3.755-1.292-1.595-2-3.614-1.929-5.615.053-1.523.213-1.93 3.399-8.68l3.345-7.066 1.151.566 1.15.567-3.257 6.961zm21.117 12.629l-4.283 8.767 4.372 2.126 4.354 2.125-.566 1.169-.567 1.169-5.416-2.727-5.417-2.728 4.744-9.901 4.744-9.901 1.151.567 1.15.566-4.266 8.768zm14.639 7.156l-4.284 8.767 4.372 2.126 4.355 2.125-.567 1.169-.566 1.169-5.417-2.728-5.416-2.727 4.744-9.901 4.744-9.901 1.15.566 1.151.567-4.266 8.768zm18.745 3.259l-1.947 4.003 4.106 2.001 4.107 2.002 1.947-4.003 1.947-4.003 2.567 1.257 2.566 1.258-4.885 9.83-4.886 9.83-2.531-1.151-2.549-1.151 1.894-3.879 1.894-3.879-4.106-2.002-4.107-2.001-1.894 3.861-1.894 3.861-2.443-1.186-2.442-1.187 4.85-9.937 4.85-9.936 2.442 1.187 2.443 1.186-1.929 4.039zm31.95 11.654c1.734 2.073 2.602 4.375 2.619 6.908 0 2.019-.07 2.32-1.327 4.871-1.204 2.462-1.469 2.834-2.868 3.985-1.929 1.576-4.832 2.462-7.292 2.232-2.479-.23-4.691-1.027-9.453-3.33l-4.177-2.037 2.832-5.81 2.832-5.809 2.567 1.257 2.566 1.258-1.84 3.773-1.841 3.772 2.708 1.205c2.407 1.063 2.867 1.187 4.071 1.009 3.788-.496 6.638-5.349 5.31-9.033-.779-2.143-1.734-2.887-7.027-5.473l-4.372-2.143.956-1.948.956-1.949 5.806 2.94c5.611 2.817 5.841 2.958 6.974 4.322z" fill="url(#paint0_linear)"/><defs><linearGradient id="paint0_linear" x1="147.905" y1="50.746" x2="279.122" y2="114.79" gradientUnits="userSpaceOnUse"><stop stop-color="#318AC7"/><stop offset=".49" stop-color="#54A9BA"/><stop offset="1" stop-color="#6FD9DA"/></linearGradient></defs></svg>
